<svg width="1041" height="168" viewBox="0 0 1041 168" fill="none" xmlns="http://www.w3.org/2000/svg">
<path d="M802.586 35.3906C809.54 35.3906 815.378 36.7572 820.097 39.4893C824.815 42.0971 828.728 45.3876 831.832 49.3613H832.204V38.1846H850.46V125.734C850.46 139.643 846.547 150.013 838.724 156.843C831.024 163.797 820.096 167.274 805.939 167.274C797.247 167.274 789.795 165.97 783.586 163.362C777.377 160.754 772.595 157.153 769.242 152.559C765.889 148.088 763.902 142.934 763.281 137.098H782.282C783.276 141.817 785.635 145.542 789.36 148.274C793.21 151.006 798.737 152.372 805.939 152.372C814.756 152.372 821.338 150.323 825.685 146.225C830.031 142.127 832.204 135.669 832.204 126.853V113.999H831.832C828.852 118.345 825.001 121.823 820.282 124.431C815.563 127.038 809.664 128.343 802.586 128.343C794.514 128.343 787.311 126.604 780.978 123.127C774.644 119.526 769.677 114.247 766.076 107.293C762.475 100.215 760.674 91.7704 760.674 81.96C760.674 72.0252 762.475 63.5803 766.076 56.626C769.677 49.672 774.644 44.3942 780.978 40.793C787.311 37.1917 794.514 35.3907 802.586 35.3906ZM147.044 35.2061C156.482 35.2061 164.554 37.1932 171.26 41.167C178.09 45.1408 183.244 50.7914 186.721 58.1182C190.322 65.3208 192.123 73.8281 192.123 83.6387C192.123 87.1154 192.061 89.4126 191.937 90.5303H118.927C119.038 95.7676 120.089 100.673 122.082 105.246C124.317 109.965 127.546 113.815 131.769 116.795C135.991 119.651 141.207 121.08 147.416 121.08C152.508 121.08 156.792 120.148 160.27 118.285C163.871 116.422 166.603 114.249 168.466 111.766C170.328 109.158 171.632 106.55 172.377 103.942H191.005C188.273 113.629 183.244 121.39 175.917 127.227C168.59 133.063 158.966 135.981 147.044 135.981C137.233 135.981 128.788 133.871 121.71 129.648C114.632 125.302 109.229 119.279 105.504 111.58C101.903 103.881 100.102 95.1873 100.102 85.501C100.102 75.5663 101.965 66.8115 105.69 59.2363C109.54 51.6612 115.004 45.7623 122.082 41.54C129.161 37.3178 137.482 35.2061 147.044 35.2061ZM400.612 35.2051C410.299 35.2051 418.681 37.3159 425.76 41.5381C432.838 45.7603 438.302 51.7216 442.151 59.4209C446.001 66.9961 447.927 75.6895 447.927 85.5C447.927 95.4346 446.001 104.252 442.151 111.951C438.302 119.526 432.776 125.425 425.573 129.647C418.495 133.87 410.112 135.98 400.426 135.98C390.739 135.98 382.294 133.87 375.092 129.647C368.013 125.425 362.549 119.526 358.699 111.951C354.849 104.252 352.925 95.4961 352.925 85.6855C352.925 75.8752 354.85 67.1202 358.699 59.4209C362.549 51.7215 368.013 45.7603 375.092 41.5381C382.294 37.3159 390.802 35.2051 400.612 35.2051ZM652.165 35.2051C661.851 35.2051 670.234 37.316 677.312 41.5381C684.391 45.7603 689.855 51.7215 693.705 59.4209C697.555 66.9961 699.479 75.6895 699.479 85.5C699.479 95.4346 697.555 104.252 693.705 111.951C689.855 119.526 684.33 125.425 677.127 129.647C670.049 133.87 661.666 135.98 651.979 135.98C642.293 135.98 633.848 133.87 626.646 129.647C619.567 125.425 614.103 119.526 610.253 111.951C606.403 104.252 604.479 95.4961 604.479 85.6855C604.479 75.8751 606.403 67.1202 610.253 59.4209C614.103 51.7215 619.567 45.7603 626.646 41.5381C633.848 37.316 642.355 35.2051 652.165 35.2051ZM907.348 35.2051C916.786 35.2051 924.858 37.1922 931.563 41.166C938.394 45.1399 943.547 50.7904 947.024 58.1172C950.626 65.3198 952.427 73.8263 952.427 83.6367C952.427 87.1139 952.364 89.4116 952.24 90.5293H879.23C879.342 95.7666 880.392 100.672 882.386 105.245C884.621 109.964 887.85 113.814 892.072 116.794C896.295 119.65 901.51 121.078 907.72 121.078C912.811 121.078 917.096 120.147 920.573 118.284C924.174 116.421 926.907 114.248 928.77 111.765C930.632 109.157 931.936 106.549 932.681 103.941H951.309C948.577 113.627 943.547 121.389 936.221 127.226C928.894 133.062 919.269 135.98 907.348 135.98C897.537 135.98 889.092 133.87 882.014 129.647C874.935 125.301 869.533 119.278 865.808 111.578C862.206 103.879 860.405 95.1862 860.405 85.5C860.405 75.5653 862.268 66.8096 865.993 59.2344C869.843 51.6592 875.307 45.7603 882.386 41.5381C889.464 37.3158 897.785 35.2051 907.348 35.2051ZM287.823 133.188H269.568V122.011H269.195C266.215 125.985 262.241 129.276 257.273 131.884C252.43 134.491 246.656 135.795 239.95 135.795C231.878 135.795 224.613 133.808 218.155 129.834C211.698 125.736 206.606 119.899 202.881 112.324C199.155 104.749 197.292 95.8696 197.292 85.6865C197.292 75.5037 199.155 66.6249 202.881 59.0498C206.606 51.3504 211.698 45.513 218.155 41.5391C224.613 37.441 231.878 35.3926 239.95 35.3926C246.78 35.3926 252.617 36.7583 257.46 39.4902C262.303 42.098 266.215 45.5132 269.195 49.7354H269.568V0H287.823V133.188ZM995.598 35.3906C1004.04 35.3906 1011.12 36.7572 1016.83 39.4893C1022.67 42.0971 1027.08 45.6982 1030.06 50.293C1033.16 54.8878 1034.96 60.0414 1035.46 65.7539H1017.02C1016.15 61.1591 1014.16 57.4334 1011.06 54.5771C1008.08 51.5968 1003.05 50.1064 995.97 50.1064C990.133 50.1065 985.725 51.2247 982.744 53.46C979.888 55.5711 978.46 58.4271 978.46 62.0283C978.46 64.7604 979.267 66.9335 980.882 68.5479C982.496 70.1621 984.545 71.4042 987.028 72.2734C989.636 73.0185 993.3 73.8874 998.02 74.8809C999.137 75.1292 1000.63 75.44 1002.49 75.8125C1010.07 77.6752 1016.34 79.6 1021.3 81.5869C1026.27 83.4496 1030.43 86.3681 1033.78 90.3418C1037.26 94.3157 1039 99.594 1039 106.176C1039 112.385 1037.45 117.725 1034.34 122.195C1031.36 126.542 1026.89 129.894 1020.93 132.254C1015.09 134.613 1008.08 135.794 999.882 135.794C990.444 135.794 982.496 134.365 976.038 131.509C969.581 128.528 964.675 124.43 961.322 119.215C958.094 113.999 956.355 108.1 956.106 101.519H974.548C974.796 105.368 975.79 108.783 977.528 111.764C979.391 114.62 982.123 116.918 985.725 118.656C989.326 120.271 993.983 121.078 999.695 121.078C1007.15 121.078 1012.36 119.774 1015.34 117.166C1018.45 114.434 1020 111.081 1020 107.107C1020 103.879 1019.07 101.27 1017.21 99.2832C1015.34 97.2963 1013.05 95.8683 1010.31 94.999C1007.58 94.0056 1003.79 93.012 998.95 92.0186C997.709 91.7702 996.405 91.5218 995.039 91.2734C994.294 91.0251 993.486 90.839 992.617 90.7148C985.911 89.1005 980.261 87.3618 975.666 85.499C971.071 83.5121 967.221 80.7175 964.116 77.1162C961.012 73.3908 959.46 68.6098 959.46 62.7734C959.46 57.3093 960.888 52.5278 963.744 48.4297C966.6 44.2077 970.761 40.9794 976.225 38.7441C981.689 36.5088 988.147 35.3906 995.598 35.3906ZM57.5107 0C70.7985 1.06141e-05 81.3541 3.29131 89.1777 9.87305C97.1255 16.3306 101.1 26.265 101.1 39.6768C101.1 48.618 99.2373 56.0695 95.5117 62.0303C91.9104 67.8669 86.8181 72.2131 80.2363 75.0693C73.7788 77.8013 66.2036 79.167 57.5107 79.167H22.4902V133.188H2V0H57.5107ZM550.268 0C563.928 5.51558e-05 574.546 2.98064 582.121 8.94141C589.82 14.778 593.67 22.974 593.67 33.5293C593.67 41.1045 591.745 47.128 587.896 51.5986C584.17 55.9451 579.202 59.174 572.993 61.2852V61.6572C580.568 62.8991 586.778 66.3141 591.621 71.9023C596.464 77.4906 598.886 84.9421 598.886 94.2559C598.886 102.576 597.022 109.655 593.297 115.491C589.571 121.328 584.294 125.736 577.464 128.717C570.758 131.697 562.81 133.188 553.62 133.188H494.197V0H550.268ZM346.934 35.9512C350.162 35.9512 353.081 36.1372 355.688 36.5098V54.0195C353.453 53.647 351.404 53.4609 349.541 53.4609C344.077 53.4609 339.172 54.7652 334.825 57.373C330.479 59.9809 327.064 63.582 324.58 68.1768C322.221 72.7715 321.041 78.0491 321.041 84.0098V133.187H302.785V38.1865H321.041V56.2549H321.413C324.021 49.7974 327.374 44.8297 331.472 41.3525C335.694 37.7512 340.849 35.9512 346.934 35.9512ZM753.577 35.9512C756.806 35.9512 759.724 36.1372 762.332 36.5098V54.0195C760.097 53.647 758.047 53.4609 756.185 53.4609C750.72 53.461 745.815 54.7652 741.469 57.373C737.122 59.9809 733.707 63.582 731.224 68.1768C728.864 72.7715 727.685 78.0491 727.685 84.0098V133.187H709.429V38.1865H727.685V56.2549H728.057C730.665 49.7973 734.018 44.8297 738.116 41.3525C742.338 37.7514 747.492 35.9512 753.577 35.9512ZM400.612 50.4795C394.279 50.4795 388.938 51.9698 384.592 54.9502C380.37 57.9306 377.203 62.0908 375.092 67.4307C372.981 72.7705 371.925 78.8556 371.925 85.6855C371.925 96.117 374.347 104.624 379.19 111.206C384.034 117.663 391.174 120.892 400.612 120.892C406.821 120.892 412.037 119.402 416.259 116.422C420.605 113.317 423.773 109.095 425.76 103.755C427.871 98.4151 428.926 92.33 428.926 85.5C428.926 75.1928 426.504 66.8101 421.661 60.3525C416.818 53.7709 409.802 50.4796 400.612 50.4795ZM652.165 50.4795C645.832 50.4795 640.492 51.9699 636.146 54.9502C631.923 57.9306 628.757 62.0908 626.646 67.4307C624.534 72.7705 623.479 78.8556 623.479 85.6855C623.479 96.117 625.9 104.624 630.743 111.206C635.586 117.663 642.727 120.892 652.165 120.892C658.374 120.892 663.59 119.402 667.812 116.422C672.159 113.317 675.326 109.095 677.312 103.755C679.424 98.4151 680.479 92.33 680.479 85.5C680.479 75.1928 678.058 66.8101 673.215 60.3525C668.372 53.7708 661.355 50.4795 652.165 50.4795ZM242.931 50.667C237.218 50.667 232.313 52.2197 228.215 55.3242C224.241 58.4288 221.26 62.6513 219.273 67.9912C217.287 73.3309 216.293 79.2293 216.293 85.6865C216.293 92.0199 217.286 97.8574 219.273 103.197C221.26 108.537 224.241 112.821 228.215 116.05C232.313 119.154 237.218 120.707 242.931 120.707C248.395 120.707 253.114 119.279 257.088 116.423C261.062 113.567 264.104 109.53 266.215 104.314C268.326 98.9745 269.382 92.765 269.382 85.6865C269.382 78.4841 268.326 72.2752 266.215 67.0596C264.104 61.7197 261.062 57.6832 257.088 54.9512C253.114 52.095 248.395 50.667 242.931 50.667ZM514.688 115.491H552.13C558.463 115.491 563.493 114.56 567.219 112.697C570.944 110.835 573.552 108.288 575.042 105.06C576.656 101.831 577.464 97.9813 577.464 93.5107C577.464 86.5565 575.477 81.1544 571.503 77.3047C567.529 73.455 562.002 71.5303 554.924 71.5303H514.688V115.491ZM805.939 50.665C800.103 50.665 795.198 52.0317 791.224 54.7637C787.374 57.3715 784.455 61.0349 782.468 65.7539C780.605 70.4728 779.674 75.875 779.674 81.96C779.674 91.2737 781.909 98.8489 786.38 104.686C790.851 110.398 797.371 113.254 805.939 113.254C811.404 113.254 816.06 112.074 819.91 109.715C823.884 107.355 826.865 103.878 828.852 99.2832C830.963 94.5643 832.018 88.7899 832.018 81.96C832.018 75.1298 830.963 69.3547 828.852 64.6357C826.865 59.917 823.884 56.4404 819.91 54.2051C816.06 51.8456 811.404 50.6651 805.939 50.665ZM146.484 50.1084C141.269 50.1085 136.55 51.2882 132.328 53.6475C128.106 56.007 124.815 59.3606 122.455 63.707C120.416 67.3568 119.259 71.517 118.982 76.1875H173.122C173.122 71.2202 172.005 66.7493 169.77 62.7754C167.658 58.8017 164.554 55.6972 160.456 53.4619C156.482 51.2266 151.824 50.1084 146.484 50.1084ZM906.788 50.1074C901.572 50.1075 896.853 51.287 892.631 53.6465C888.409 56.0059 885.118 59.3589 882.759 63.7051C880.719 67.3548 879.563 71.5152 879.286 76.1855H933.426C933.426 71.2185 932.308 66.7481 930.073 62.7744C927.962 58.8005 924.857 55.6953 920.759 53.46C916.785 51.2248 912.128 50.1074 906.788 50.1074ZM22.4902 61.4707H56.5791C61.7949 61.4707 66.0796 60.7256 69.4326 59.2354C72.9096 57.621 75.5173 55.1994 77.2559 51.9707C78.9944 48.7419 79.8643 44.6441 79.8643 39.6768C79.8643 32.226 77.9393 26.7 74.0898 23.0986C70.2401 19.4973 64.4028 17.6963 56.5791 17.6963H22.4902V61.4707ZM514.688 55.3242H549.708C555.172 55.3242 559.582 54.5791 562.935 53.0889C566.287 51.5987 568.647 49.5492 570.013 46.9414C571.503 44.2094 572.248 40.732 572.248 36.5098C572.248 30.5491 570.447 25.9543 566.846 22.7256C563.369 19.3727 558.153 17.6963 551.198 17.6963H514.688V55.3242Z" fill="#FAFAFA"/>
</svg>
