<svg preserveAspectRatio="none" width="100%" height="100%" overflow="visible" style="display: block;" viewBox="0 0 1037 167.274" fill="none" xmlns="http://www.w3.org/2000/svg">
<path id="Pedro Borges" d="M800.586 35.3906C807.54 35.3906 813.378 36.7572 818.097 39.4893C822.815 42.0971 826.728 45.3876 829.832 49.3613H830.204V38.1846H848.46V125.734C848.46 139.643 844.547 150.013 836.724 156.843C829.024 163.797 818.096 167.274 803.939 167.274C795.247 167.274 787.795 165.97 781.586 163.362C775.377 160.754 770.595 157.153 767.242 152.559C763.889 148.088 761.902 142.934 761.281 137.098H780.282C781.276 141.817 783.635 145.542 787.36 148.274C791.21 151.006 796.737 152.372 803.939 152.372C812.756 152.372 819.338 150.323 823.685 146.225C828.031 142.127 830.204 135.669 830.204 126.853V113.999H829.832C826.852 118.345 823.001 121.823 818.282 124.431C813.563 127.038 807.664 128.343 800.586 128.343C792.514 128.343 785.311 126.604 778.978 123.127C772.644 119.526 767.677 114.247 764.076 107.293C760.475 100.215 758.674 91.7704 758.674 81.96C758.674 72.0252 760.475 63.5803 764.076 56.626C767.677 49.672 772.644 44.3942 778.978 40.793C785.311 37.1917 792.514 35.3907 800.586 35.3906ZM145.044 35.2061C154.482 35.2061 162.554 37.1932 169.26 41.167C176.09 45.1408 181.244 50.7914 184.721 58.1182C188.322 65.3208 190.123 73.8281 190.123 83.6387C190.123 87.1154 190.061 89.4126 189.937 90.5303H116.927C117.038 95.7676 118.089 100.673 120.082 105.246C122.317 109.965 125.546 113.815 129.769 116.795C133.991 119.651 139.207 121.08 145.416 121.08C150.508 121.08 154.792 120.148 158.27 118.285C161.871 116.422 164.603 114.249 166.466 111.766C168.328 109.158 169.632 106.55 170.377 103.942H189.005C186.273 113.629 181.244 121.39 173.917 127.227C166.59 133.063 156.966 135.981 145.044 135.981C135.233 135.981 126.788 133.871 119.71 129.648C112.632 125.302 107.229 119.279 103.504 111.58C99.9025 103.881 98.1016 95.1873 98.1016 85.501C98.1016 75.5663 99.9649 66.8115 103.69 59.2363C107.54 51.6612 113.004 45.7623 120.082 41.54C127.161 37.3178 135.482 35.2061 145.044 35.2061ZM398.612 35.2051C408.299 35.2051 416.681 37.3159 423.76 41.5381C430.838 45.7603 436.302 51.7216 440.151 59.4209C444.001 66.9961 445.927 75.6895 445.927 85.5C445.927 95.4346 444.001 104.252 440.151 111.951C436.302 119.526 430.776 125.425 423.573 129.647C416.495 133.87 408.112 135.98 398.426 135.98C388.739 135.98 380.294 133.87 373.092 129.647C366.013 125.425 360.549 119.526 356.699 111.951C352.849 104.252 350.925 95.4961 350.925 85.6855C350.925 75.8752 352.85 67.1202 356.699 59.4209C360.549 51.7215 366.013 45.7603 373.092 41.5381C380.294 37.3159 388.802 35.2051 398.612 35.2051ZM650.165 35.2051C659.851 35.2051 668.234 37.316 675.312 41.5381C682.391 45.7603 687.855 51.7215 691.705 59.4209C695.555 66.9961 697.479 75.6895 697.479 85.5C697.479 95.4346 695.555 104.252 691.705 111.951C687.855 119.526 682.33 125.425 675.127 129.647C668.049 133.87 659.666 135.98 649.979 135.98C640.293 135.98 631.848 133.87 624.646 129.647C617.567 125.425 612.103 119.526 608.253 111.951C604.403 104.252 602.479 95.4961 602.479 85.6855C602.479 75.8751 604.403 67.1202 608.253 59.4209C612.103 51.7215 617.567 45.7603 624.646 41.5381C631.848 37.316 640.355 35.2051 650.165 35.2051ZM905.348 35.2051C914.786 35.2051 922.858 37.1922 929.563 41.166C936.394 45.1399 941.547 50.7904 945.024 58.1172C948.626 65.3198 950.427 73.8263 950.427 83.6367C950.427 87.1139 950.364 89.4116 950.24 90.5293H877.23C877.342 95.7666 878.392 100.672 880.386 105.245C882.621 109.964 885.85 113.814 890.072 116.794C894.295 119.65 899.511 121.078 905.72 121.078C910.811 121.078 915.096 120.147 918.573 118.284C922.175 116.421 924.907 114.248 926.77 111.765C928.632 109.157 929.936 106.549 930.681 103.941H949.309C946.577 113.627 941.547 121.389 934.221 127.226C926.894 133.062 917.269 135.98 905.348 135.98C895.537 135.98 887.092 133.87 880.014 129.647C872.935 125.301 867.533 119.278 863.808 111.578C860.206 103.879 858.405 95.1862 858.405 85.5C858.405 75.5653 860.268 66.8096 863.993 59.2344C867.843 51.6592 873.307 45.7603 880.386 41.5381C887.464 37.3158 895.785 35.2051 905.348 35.2051ZM285.823 133.188H267.568V122.011H267.195C264.215 125.985 260.241 129.276 255.273 131.884C250.43 134.491 244.656 135.795 237.95 135.795C229.878 135.795 222.613 133.808 216.155 129.834C209.698 125.736 204.606 119.899 200.881 112.324C197.155 104.749 195.292 95.8696 195.292 85.6865C195.292 75.5037 197.155 66.6249 200.881 59.0498C204.606 51.3504 209.698 45.5129 216.155 41.5391C222.613 37.441 229.878 35.3926 237.95 35.3926C244.78 35.3926 250.617 36.7583 255.46 39.4902C260.303 42.098 264.215 45.5132 267.195 49.7354H267.568V0H285.823V133.188ZM993.598 35.3906C1002.04 35.3906 1009.12 36.7572 1014.83 39.4893C1020.67 42.0971 1025.08 45.6982 1028.06 50.293C1031.16 54.8878 1032.96 60.0414 1033.46 65.7539H1015.02C1014.15 61.1591 1012.16 57.4334 1009.06 54.5771C1006.08 51.5968 1001.05 50.1064 993.97 50.1064C988.133 50.1065 983.725 51.2247 980.744 53.46C977.888 55.5711 976.46 58.4271 976.46 62.0283C976.46 64.7604 977.267 66.9335 978.882 68.5479C980.496 70.1621 982.545 71.4042 985.028 72.2734C987.636 73.0185 991.301 73.8874 996.02 74.8809C997.137 75.1292 998.628 75.44 1000.49 75.8125C1008.07 77.6752 1014.34 79.6 1019.3 81.5869C1024.27 83.4496 1028.43 86.3681 1031.78 90.3418C1035.26 94.3157 1037 99.594 1037 106.176C1037 112.385 1035.45 117.725 1032.34 122.195C1029.36 126.542 1024.89 129.894 1018.93 132.254C1013.09 134.613 1006.08 135.794 997.882 135.794C988.444 135.794 980.496 134.365 974.038 131.509C967.581 128.528 962.675 124.43 959.322 119.215C956.094 113.999 954.355 108.1 954.106 101.519H972.548C972.796 105.368 973.79 108.783 975.528 111.764C977.391 114.62 980.123 116.918 983.725 118.656C987.326 120.271 991.983 121.078 997.695 121.078C1005.15 121.078 1010.36 119.774 1013.34 117.166C1016.45 114.434 1018 111.081 1018 107.107C1018 103.879 1017.07 101.27 1015.21 99.2832C1013.34 97.2963 1011.05 95.8683 1008.31 94.999C1005.58 94.0056 1001.79 93.012 996.95 92.0186C995.709 91.7702 994.405 91.5218 993.039 91.2734C992.294 91.0251 991.486 90.839 990.617 90.7148C983.911 89.1005 978.261 87.3618 973.666 85.499C969.071 83.5121 965.221 80.7175 962.116 77.1162C959.012 73.3908 957.46 68.6098 957.46 62.7734C957.46 57.3093 958.888 52.5278 961.744 48.4297C964.6 44.2077 968.761 40.9794 974.225 38.7441C979.689 36.5088 986.147 35.3906 993.598 35.3906ZM55.5107 0C68.7985 1.06141e-05 79.3541 3.29131 87.1777 9.87305C95.1255 16.3306 99.0996 26.265 99.0996 39.6768C99.0996 48.618 97.2373 56.0694 93.5117 62.0303C89.9104 67.8669 84.8181 72.2131 78.2363 75.0693C71.7788 77.8013 64.2036 79.167 55.5107 79.167H20.4902V133.188H0V0H55.5107ZM548.268 0C561.928 5.51558e-05 572.546 2.98064 580.121 8.94141C587.82 14.778 591.67 22.974 591.67 33.5293C591.67 41.1045 589.745 47.128 585.896 51.5986C582.17 55.9451 577.202 59.174 570.993 61.2852V61.6572C578.568 62.8991 584.778 66.3141 589.621 71.9023C594.464 77.4906 596.886 84.9421 596.886 94.2559C596.886 102.576 595.022 109.655 591.297 115.491C587.571 121.328 582.294 125.736 575.464 128.717C568.758 131.697 560.81 133.188 551.62 133.188H492.197V0H548.268ZM344.934 35.9512C348.162 35.9512 351.081 36.1372 353.688 36.5098V54.0195C351.453 53.647 349.404 53.4609 347.541 53.4609C342.077 53.4609 337.172 54.7652 332.825 57.373C328.479 59.9809 325.064 63.582 322.58 68.1768C320.221 72.7715 319.041 78.0491 319.041 84.0098V133.187H300.785V38.1865H319.041V56.2549H319.413C322.021 49.7974 325.374 44.8297 329.472 41.3525C333.694 37.7512 338.849 35.9512 344.934 35.9512ZM751.577 35.9512C754.806 35.9512 757.724 36.1372 760.332 36.5098V54.0195C758.097 53.647 756.047 53.4609 754.185 53.4609C748.72 53.461 743.815 54.7652 739.469 57.373C735.122 59.9809 731.707 63.582 729.224 68.1768C726.864 72.7715 725.685 78.0491 725.685 84.0098V133.187H707.429V38.1865H725.685V56.2549H726.057C728.665 49.7973 732.018 44.8297 736.116 41.3525C740.338 37.7515 745.492 35.9512 751.577 35.9512ZM398.612 50.4795C392.279 50.4795 386.938 51.9698 382.592 54.9502C378.37 57.9306 375.203 62.0908 373.092 67.4307C370.981 72.7705 369.925 78.8556 369.925 85.6855C369.925 96.117 372.347 104.624 377.19 111.206C382.034 117.663 389.174 120.892 398.612 120.892C404.821 120.892 410.037 119.402 414.259 116.422C418.605 113.317 421.773 109.095 423.76 103.755C425.871 98.4151 426.926 92.33 426.926 85.5C426.926 75.1928 424.504 66.8101 419.661 60.3525C414.818 53.7709 407.802 50.4796 398.612 50.4795ZM650.165 50.4795C643.832 50.4795 638.492 51.9699 634.146 54.9502C629.923 57.9306 626.757 62.0908 624.646 67.4307C622.534 72.7705 621.479 78.8556 621.479 85.6855C621.479 96.117 623.9 104.624 628.743 111.206C633.586 117.663 640.727 120.892 650.165 120.892C656.374 120.892 661.59 119.402 665.812 116.422C670.159 113.317 673.326 109.095 675.312 103.755C677.424 98.4151 678.479 92.33 678.479 85.5C678.479 75.1928 676.058 66.8101 671.215 60.3525C666.372 53.7708 659.355 50.4795 650.165 50.4795ZM240.931 50.667C235.218 50.667 230.313 52.2197 226.215 55.3242C222.241 58.4288 219.26 62.6513 217.273 67.9912C215.287 73.3309 214.293 79.2293 214.293 85.6865C214.293 92.0199 215.286 97.8574 217.273 103.197C219.26 108.537 222.241 112.821 226.215 116.05C230.313 119.154 235.218 120.707 240.931 120.707C246.395 120.707 251.114 119.279 255.088 116.423C259.062 113.567 262.104 109.53 264.215 104.314C266.326 98.9745 267.382 92.765 267.382 85.6865C267.382 78.4841 266.326 72.2752 264.215 67.0596C262.104 61.7197 259.062 57.6832 255.088 54.9512C251.114 52.095 246.395 50.667 240.931 50.667ZM512.688 115.491H550.13C556.463 115.491 561.493 114.56 565.219 112.697C568.944 110.835 571.552 108.288 573.042 105.06C574.656 101.831 575.464 97.9813 575.464 93.5107C575.464 86.5565 573.477 81.1544 569.503 77.3047C565.529 73.455 560.002 71.5303 552.924 71.5303H512.688V115.491ZM803.939 50.665C798.103 50.665 793.198 52.0317 789.224 54.7637C785.374 57.3715 782.455 61.0349 780.468 65.7539C778.605 70.4728 777.674 75.875 777.674 81.96C777.674 91.2737 779.909 98.8489 784.38 104.686C788.851 110.398 795.371 113.254 803.939 113.254C809.403 113.254 814.06 112.074 817.91 109.715C821.884 107.355 824.865 103.878 826.852 99.2832C828.963 94.5643 830.018 88.7899 830.018 81.96C830.018 75.1298 828.963 69.3547 826.852 64.6357C824.865 59.917 821.884 56.4404 817.91 54.2051C814.06 51.8456 809.403 50.6651 803.939 50.665ZM144.484 50.1084C139.269 50.1085 134.55 51.2882 130.328 53.6475C126.106 56.007 122.815 59.3606 120.455 63.707C118.416 67.3568 117.259 71.517 116.982 76.1875H171.122C171.122 71.2202 170.005 66.7493 167.77 62.7754C165.658 58.8017 162.554 55.6972 158.456 53.4619C154.482 51.2266 149.824 50.1084 144.484 50.1084ZM904.788 50.1074C899.572 50.1075 894.853 51.287 890.631 53.6465C886.409 56.0059 883.118 59.3589 880.759 63.7051C878.719 67.3548 877.563 71.5152 877.286 76.1855H931.426C931.426 71.2185 930.308 66.7481 928.073 62.7744C925.962 58.8005 922.857 55.6953 918.759 53.46C914.785 51.2248 910.128 50.1074 904.788 50.1074ZM20.4902 61.4707H54.5791C59.7949 61.4707 64.0796 60.7256 67.4326 59.2354C70.9096 57.621 73.5173 55.1994 75.2559 51.9707C76.9944 48.7419 77.8643 44.6441 77.8643 39.6768C77.8643 32.226 75.9393 26.7 72.0898 23.0986C68.2401 19.4973 62.4028 17.6963 54.5791 17.6963H20.4902V61.4707ZM512.688 55.3242H547.708C553.172 55.3242 557.582 54.5791 560.935 53.0889C564.287 51.5987 566.647 49.5492 568.013 46.9414C569.503 44.2094 570.248 40.732 570.248 36.5098C570.248 30.5491 568.447 25.9543 564.846 22.7256C561.369 19.3727 556.153 17.6963 549.198 17.6963H512.688V55.3242Z" fill="var(--fill-0, #FAFAFA)"/>
</svg>
